<?xml version="1.0" encoding="UTF-8"?>
<svg id="Layer_2" data-name="Layer 2" xmlns="http://www.w3.org/2000/svg" viewBox="0 0 135.41 135.45">
  <defs>
    <style>
      .cls-1 {
        fill: #204f29;
      }
    </style>
  </defs>
  <g id="Layer_1-2" data-name="Layer 1">
    <g>
      <path class="cls-1" d="M122.98,0c6.49,1.15,11.48,6.25,12.43,13.06v84.12c-1,5.3-4.06,9.57-9.05,11.64l-.02-15.7c-.02-13.69-11.22-24.58-24.64-24.57-13.6.01-24.66,11.07-24.65,24.85v16.51s-62.21,0-62.21,0c-7.56,0-13.68-5.37-14.83-12.6V12.43C1.13,6.09,6.1,1.13,12.43,0h110.55ZM97.7,25.19c2.5,0,3.9-2.48,3.68-4.37-.24-2.08-1.88-3.55-4.14-3.55h-59.27c-2.34,0-3.96,1.93-3.94,4.03.02,1.92,1.57,3.9,3.84,3.9h59.84ZM114.47,42.2c2.35,0,3.92-1.92,3.92-3.98s-1.57-3.94-3.92-3.94H20.94c-2.34,0-3.92,1.93-3.92,3.94s1.57,3.98,3.92,3.98h93.53ZM114.56,59.21c2.44-.19,3.85-1.99,3.83-4.09-.02-1.95-1.64-3.85-3.92-3.85H20.94c-2.37,0-4.02,2.03-3.93,4.09s1.65,3.84,3.95,3.84h93.6ZM64.12,88.66c2.45,0,3.94-2.13,3.85-4.13-.08-1.85-1.6-3.79-3.78-3.79H20.98c-2.34,0-3.99,1.93-3.96,4.03s1.63,3.89,3.9,3.89h43.2Z"/>
      <circle class="cls-1" cx="101.7" cy="93.2" r="16.71"/>
      <path class="cls-1" d="M112.51,134.91l-10.79-7.17-10.92,7.23c-1.19.79-2.85.53-3.98-.19-1.03-.66-1.83-1.86-1.83-3.34v-20.12c9.61,8.71,23.82,8.72,33.43.01v20.11c0,1.47-.81,2.71-1.83,3.34-1.17.73-2.79.99-4.08.13Z"/>
    </g>
  </g>
</svg>