<?xml version="1.0" encoding="UTF-8"?>
<svg id="Layer_2" data-name="Layer 2" xmlns="http://www.w3.org/2000/svg" viewBox="0 0 136.76 136.76">
  <defs>
    <style>
      .cls-1 {
        fill: #204f29;
      }
    </style>
  </defs>
  <g id="Layer_1-2" data-name="Layer 1">
    <g>
      <path class="cls-1" d="M89.2,0l.99.68,45.73,45.73c1.27,1.27.98,3.02-.19,4.2l-85.12,85.12c-1.19,1.19-2.92,1.46-4.19.18L.69,90.19,0,89.14v-1.8s.75-.94.75-.94L86.4.75,87.39,0h1.82ZM107.41,61.84l11.39-11.39c1.15-1.15,1.05-2.87.08-3.92s-2.82-1.38-3.97-.23l-11.6,11.59c-1.17,1.17-.92,3.04.18,4.04.99.9,2.73,1.09,3.91-.09ZM76.71,85.37c4.74-.65,8.12-4.17,8.69-8.79.38-3.12-.19-6.16-1.49-9.08-2.92-6.52-8.17-11.75-14.72-14.6-2.66-1.16-5.35-1.7-8.17-1.52-5.21.32-9.19,4.2-9.61,9.41-.23,2.82.28,5.53,1.42,8.2,2.77,6.51,7.89,11.77,14.32,14.75,3.02,1.4,6.17,2.1,9.57,1.63ZM21.91,90.38l11.52-11.52c1.16-1.16.85-3.02-.08-3.94-1.15-1.13-2.92-1.11-4.07.04l-11.33,11.34c-1.15,1.15-1.07,2.86-.09,3.92s2.82,1.4,4.06.16Z"/>
      <polygon class="cls-1" points="0 72.01 0 70.24 1.25 68.77 15.46 63.59 1.97 77.14 0 72.01"/>
      <path class="cls-1" d="M99.9,94.49c.66,1.4,1.91,2.14,3.38,1.84l14.42-5.31c1.49-.55,2.21-2.05,1.84-3.43-.4-1.47-1.89-2.44-3.48-2.01l-11.36,4.12,22.48-22.5,9.47,26.03c.31,1.56-.32,2.87-1.81,3.49l-58.74,21.63,23.8-23.85Z"/>
      <path class="cls-1" d="M26.5,136.63c-1.59.37-2.99-.34-3.55-1.77l-8.04-22.33,20.77,20.7-9.18,3.4Z"/>
    </g>
  </g>
</svg>