<?xml version="1.0" encoding="UTF-8"?>
<svg id="Layer_2" data-name="Layer 2" xmlns="http://www.w3.org/2000/svg" viewBox="0 0 185.43 129.76">
  <defs>
    <style>
      .cls-1 {
        fill: #204f29;
      }
    </style>
  </defs>
  <g id="Layer_1-2" data-name="Layer 1">
    <path class="cls-1" d="M111.19,93.61c-.06-3.93,2.27-6.96,6.26-7.12l-.02-6.16h-15.44s0,46.31,0,46.31c0,1.85-1.41,3.03-2.92,3.11-1.67.09-3.26-1.14-3.26-3.1v-46.3s-6.18,0-6.18,0v46.3c0,1.84-1.41,3.02-2.92,3.1-1.67.09-3.26-1.14-3.26-3.11v-46.31s-15.45,0-15.45,0v6.17c3.48.12,6.17,2.75,6.17,6.17v6.22c0,3.43-2.69,6.04-6.17,6.18v21.6c0,1.92-1.64,3.17-3.26,3.08-1.82-.11-2.94-1.53-2.93-3.46v-21.25s-27.8,0-27.8,0v21.63c0,1.78-1.38,2.98-2.93,3.08-1.34.09-3.22-.97-3.23-2.72l-.04-21.96c-3.23-.13-6.05-2.54-6.1-5.81l-.09-6.21c-.05-3.58,2.51-6.43,6.21-6.56v-6.17s-15.45,0-15.45,0v46.31c0,1.84-1.38,3.01-2.93,3.11-1.32.09-3.24-.94-3.24-2.75v-46.64C2.48,80.2,0,77.38,0,73.78v-5.41c0-3.88,2.75-6.6,6.6-6.59l21.2.03c.03-2.22.12-4.05.41-6.21l-9.32.04c-4.9.02-9.55-3.69-9.56-8.92l-.03-37.46C9.3,4.12,13.4,0,18.58,0l59.06.03c5.01,0,8.9,4.39,8.89,9.22l-.03,37.5c0,4.73-4.19,8.75-8.79,8.81l-10.09.11c.3,2.34.38,4.07.4,6.12h49.39s.4-6.19.4-6.19l-9.32.04c-4.9.02-9.55-3.69-9.56-8.92l-.03-37.46C98.9,4.12,103,0,108.18,0l59.05.03c5.02,0,8.88,4.39,8.89,9.22l.03,36.71c0,5.3-3.87,9.61-9.29,9.64l-9.62.05.39,6.15h21.59c3.7,0,6.21,3.01,6.21,6.54v5.46c0,3.6-2.47,6.41-6.21,6.58v46.28c0,1.98-1.63,3.2-3.25,3.11-1.83-.11-2.93-1.5-2.93-3.49v-45.93s-15.44,0-15.44,0v6.17c3.73.14,6.23,2.98,6.2,6.56l-.04,5.83c-.02,3.43-2.67,6.04-6.16,6.18v21.6c0,1.92-1.64,3.17-3.26,3.08-1.82-.11-2.94-1.53-2.93-3.46v-21.25s-27.8,0-27.8,0v21.63c0,1.78-1.38,2.98-2.93,3.08-1.34.09-3.22-.97-3.23-2.72l-.03-21.96c-3.49-.14-6.1-2.75-6.15-6.19l-.08-5.28ZM80.36,37.07V9.3c-.12-1.8-1.29-3.03-3.16-3.13H18.63c-1.79.08-3.15,1.33-3.15,3.13v27.77s64.88,0,64.88,0ZM169.96,37.07V9.3c-.12-1.8-1.29-3.03-3.16-3.13h-58.58c-1.79.08-3.15,1.33-3.15,3.13v27.77s64.88,0,64.88,0ZM61.82,86.5v-27.77c-.09-1.78-1.34-3.03-3.12-3.12h-21.58c-1.78.09-3.03,1.33-3.12,3.12v27.78s27.81-.02,27.81-.02ZM151.42,86.5v-27.77c-.09-1.78-1.34-3.03-3.12-3.12h-21.58c-1.78.09-3.03,1.33-3.12,3.12v27.78s27.81-.02,27.81-.02ZM68,92.69H27.83v6.18h40.17v-6.18ZM157.6,92.69h-40.17v6.18h40.17v-6.18Z"/>
  </g>
</svg>