<?xml version="1.0" encoding="UTF-8"?>
<svg id="Layer_2" data-name="Layer 2" xmlns="http://www.w3.org/2000/svg" viewBox="0 0 95.41 135.3">
  <defs>
    <style>
      .cls-1 {
        fill: #204f29;
      }
    </style>
  </defs>
  <g id="Layer_1-2" data-name="Layer 1">
    <g>
      <path class="cls-1" d="M50.82,0c16.02,1.04,30.34,10.27,38.05,23.57,8.7,14.98,8.73,33.3.02,47.84l-37.16,62.03c-.77,1.29-2.15,1.86-3.39,1.86-1.13,0-2.52-.5-3.27-1.7L7.15,72.59C-1.95,57.95-2.47,39.45,6.22,24.06,13.9,10.46,28.44,1.01,44.61,0h6.21ZM71.57,47.51c0-13.16-10.69-23.83-23.87-23.83s-23.87,10.67-23.87,23.83,10.69,23.83,23.87,23.83,23.87-10.67,23.87-23.83Z"/>
      <ellipse class="cls-1" cx="47.69" cy="47.51" rx="15.89" ry="15.86"/>
    </g>
  </g>
</svg>