<?xml version="1.0" encoding="UTF-8"?>
<svg id="Layer_2" data-name="Layer 2" xmlns="http://www.w3.org/2000/svg" viewBox="0 0 113.59 141.38">
  <defs>
    <style>
      .cls-1 {
        fill: #204f29;
      }
    </style>
  </defs>
  <g id="Layer_1-2" data-name="Layer 1">
    <g>
      <path class="cls-1" d="M104.6,91.04c-7.06-13.5-21.97-20.09-36.51-15.8s-23.42,18.02-21.76,32.86c1.63,14.59,13.24,26,28.31,27.39H15.38c-8.19,0-15.35-6.6-15.35-14.95L0,15.28C0,6.61,7.16,0,15.68,0l52.02.02.02,21.49c0,8.43,6.69,15.4,15.21,15.42l21.73.04-.07,54.07ZM55.48,33.89c1.94,0,3.04-1.75,2.98-3.2-.06-1.55-1.3-2.95-3.1-2.95H21.57c-1.89,0-3.17,1.56-3.1,3.22.06,1.51,1.31,2.94,3.1,2.94h33.91ZM83.18,52.37c1.98,0,3.05-1.75,3-3.21-.06-1.55-1.29-2.95-3.11-2.95H30.82c-1.92,0-3.18,1.56-3.11,3.22.06,1.51,1.29,2.95,3.11,2.95h52.35ZM83.27,67.77c1.99-.26,2.99-1.71,2.88-3.33-.1-1.4-1.22-2.83-2.99-2.83H21.48c-1.87,0-3.01,1.57-3,3.11s1.19,3.03,3.02,3.03h61.77ZM40.07,83.14c1.87,0,3.01-1.62,3-3.11-.01-1.41-1.18-3.02-2.89-3.02h-18.72c-1.86,0-3.11,1.73-2.98,3.29.14,1.67,1.44,2.86,3.25,2.86l18.34-.02ZM33.86,98.55c1.91,0,3.1-1.66,3.04-3.21-.06-1.63-1.39-2.95-3.17-2.95h-12.19c-1.85.01-3.15,1.55-3.08,3.23.07,1.51,1.33,2.94,3.08,2.94h12.32ZM37.14,113.93c1.87,0,2.95-1.87,2.84-3.28s-1.26-2.85-2.96-2.85h-15.58c-1.78,0-2.98,1.56-2.96,3.11s1.24,3.03,2.98,3.03l15.68-.02Z"/>
      <path class="cls-1" d="M111.77,130.84c2.51,2.51,2.32,6.32.04,8.67s-6.04,2.65-8.49.22l-13.84-13.8c-10.9,6.36-24.64,3.63-32.23-6.3-7.47-9.77-6.57-23.7,2.2-32.46s22.71-9.66,32.54-2.07c9.72,7.51,12.59,21.22,6.17,32.11l13.61,13.63ZM92.34,104.71c0-8.5-6.89-15.38-15.38-15.38s-15.38,6.89-15.38,15.38,6.89,15.38,15.38,15.38,15.38-6.89,15.38-15.38Z"/>
      <path class="cls-1" d="M104.03,30.81h-20.82c-5.16.01-9.32-4.05-9.32-9.23V.67c.91.43,1.53.86,2.2,1.53l26.79,26.79,1.15,1.82Z"/>
    </g>
  </g>
</svg>