<?xml version="1.0" encoding="UTF-8"?>
<svg id="Layer_2" data-name="Layer 2" xmlns="http://www.w3.org/2000/svg" viewBox="0 0 117.84 132.72">
  <defs>
    <style>
      .cls-1 {
        fill: #204f29;
      }
    </style>
  </defs>
  <g id="Layer_1-2" data-name="Layer 1">
    <g>
      <path class="cls-1" d="M68.91,68.86c-2.67,4.17-1.02,7.48-4.75,10.23-4.44,3.28-5.78,8.85-3,13.67,1.74,3.02,2.04,3.89,1.19,7.7H2.67c-1.96,0-2.94-1.73-2.6-3.48,2.64-13.8,11.63-25.47,24.19-31.59l8.97,16c.32.58,1.08,1.13,1.61,1.2.67.09,1.56-.3,2.02-.84l6.72-7.95,6.7,7.94c.42.5,1.21.88,1.82.88.5,0,1.41-.47,1.71-1.01l9.13-16.26,5.96,3.53Z"/>
      <path class="cls-1" d="M95.83,116.78c-5.39-1.86-5.49-1.29-10.34.14-2.92.87-5.49-.22-7.08-2.77-3.07-4.92-3.03-4.57-8.14-6.73-2.87-1.22-4.13-3.81-3.62-6.88.8-4.84.52-5.7-1.79-9.88-1.58-2.85-.96-5.72,1.46-7.83,3.52-3.07,4.1-3.85,4.96-8.56.6-3.32,2.96-5.28,6.38-5.3,4.97-.03,5.69-.58,9.4-3.53,2.52-2,5.49-1.88,7.95.15,3.6,2.98,4.53,3.34,9.29,3.38,3.28.03,5.62,1.94,6.23,5.14.9,4.73,1.33,5.55,4.92,8.62,2.54,2.17,3.12,5.13,1.49,8.06-2.49,4.48-2.44,5.06-1.71,10.04.46,3.12-1.05,5.58-3.94,6.73-4.46,1.77-5.19,2.09-7.7,6.36-1.71,2.91-4.53,3.97-7.74,2.85ZM106.81,90.61c0-8.78-7.11-15.89-15.89-15.89s-15.89,7.11-15.89,15.89,7.11,15.89,15.89,15.89,15.89-7.11,15.89-15.89Z"/>
      <path class="cls-1" d="M74.64,38.63l-4.2,2.77-.04-11.54,2.1-1.05v-15.22s-28.85,7.66-28.85,7.66L11.41,12.71c-1.01-.27-1.62-1.14-1.66-2-.04-1.03.61-1.89,1.72-2.19L43.65,0l31.8,8.45c.9.24,1.51.78,1.82,1.3.56.94-.37,1.77-.45,2.46l-.06,16.53,2.1,1.14-.02,11.52-4.2-2.78Z"/>
      <path class="cls-1" d="M50.13,38.82l15.83-2.97c.01,12.55-10.19,22.45-22.4,22.44s-22.4-9.89-22.37-22.45l15.91,2.98c4.38.82,8.51.75,13.03,0Z"/>
      <path class="cls-1" d="M66.18,31.46l-16.61,3.13c-4.24.74-8.24.72-12.45-.1l-16.13-3.03v-11.79s20.23,5.38,20.23,5.38c1.53.41,2.93.53,4.48.07l20.46-5.44.02,11.78Z"/>
      <path class="cls-1" d="M79.57,132.72l-4.74-8.12-9.29,1.59,6.31-13.57c1.06.83,1.91,1.92,2.58,3.16,2.09,3.87,5.92,6.21,10.4,5.64l-5.26,11.3Z"/>
      <path class="cls-1" d="M102.08,129.8l-3.59-8.32c3.49-.04,6.38-1.93,8.32-4.79l2.28-3.35c.35-.52,1.52-.92,2.2-1.25l5,11.58-9.23-1.84-4.99,7.97Z"/>
      <polygon class="cls-1" points="35.51 76.77 28.2 63.75 30.39 62.95 40.52 70.79 35.51 76.77"/>
      <polygon class="cls-1" points="51.68 76.72 46.63 70.81 56.78 62.95 58.96 63.75 51.68 76.72"/>
      <path class="cls-1" d="M43.58,67.8l-7.85-6.12c5.48-1.01,10.5-.93,15.75-.01l-7.9,6.13Z"/>
      <path class="cls-1" d="M93.21,99.58c-.37,1.16-1.05,2.17-2.11,2.31-1.58.2-2.02-1.22-2.44-2.2-1.91-1.04-3.81-2.11-4.37-4.48-.3-1.31.38-2.58,1.75-2.78s2.03.72,2.62,2.04c.65,1.45,3.76,1.54,4.53.16.52-.94-1.06-1.58-1.76-1.7-1.94-.33-3.76-.77-5.19-2.02-1.54-1.35-1.84-3.35-1.37-5.26s2.16-2.87,3.78-3.91c.41-.82.77-2.45,2.21-2.15,1.05-.1,2.16.79,2.16,2.18,1.67.75,3.12,1.8,3.92,3.51.65,1.12.15,2.46-.83,2.97-2.58,1.34-2.85-2.15-4.78-2.4-.78-.1-1.93.22-2.24.8-1,1.9,2.55,1.57,5.41,2.9,2.21,1.03,3.29,3.18,3.07,5.49s-1.98,3.78-4.36,4.55Z"/>
    </g>
  </g>
</svg>