<?xml version="1.0" encoding="UTF-8"?>
<svg id="Layer_2" data-name="Layer 2" xmlns="http://www.w3.org/2000/svg" viewBox="0 0 134.41 135.42">
  <defs>
    <style>
      .cls-1 {
        fill: #204f29;
      }
    </style>
  </defs>
  <g id="Layer_1-2" data-name="Layer 1">
    <g>
      <path class="cls-1" d="M93.2,0l-13.61,8.96,13.62,8.94-23.86.05v15.88s33.68,35.61,33.68,35.61h31.37s0,65.98,0,65.98h-49.47s0-43.26,0-43.26h-36.75s0,43.27,0,43.27H0s0-65.98,0-65.98l31.36-.03,33.64-35.59L65.07,0h28.14ZM77.38,70.92c0-5.63-4.57-10.2-10.2-10.2s-10.2,4.57-10.2,10.2,4.57,10.2,10.2,10.2,10.2-4.57,10.2-10.2ZM20.87,94.33h-12.45v12.45h12.45v-12.45ZM40.78,94.33h-12.45v12.45h12.45v-12.45ZM106.03,94.33h-12.45v12.45h12.45v-12.45ZM125.94,94.33h-12.45v12.45h12.45v-12.45ZM20.87,113.74h-12.45v12.45h12.45v-12.45ZM40.78,113.74h-12.45v12.47h12.45v-12.47ZM106.03,113.74h-12.45v12.47h12.45v-12.47ZM125.94,113.74h-12.45v12.45h12.45v-12.45Z"/>
      <rect class="cls-1" x="52.57" y="96.52" width="11.83" height="38.89"/>
      <rect class="cls-1" x="68.76" y="96.52" width="11.82" height="38.89"/>
      <polygon class="cls-1" points="29.53 65.04 2.3 65.05 20.71 52.04 41.73 52.05 29.53 65.04"/>
      <polygon class="cls-1" points="132.06 65.05 104.91 65.07 92.63 52.05 113.66 52.03 132.06 65.05"/>
    </g>
  </g>
</svg>