<?xml version="1.0" encoding="UTF-8"?>
<svg id="Layer_2" data-name="Layer 2" xmlns="http://www.w3.org/2000/svg" viewBox="0 0 135.42 135.18">
  <defs>
    <style>
      .cls-1 {
        fill: #204f29;
      }
    </style>
  </defs>
  <g id="Layer_1-2" data-name="Layer 1">
    <g>
      <path class="cls-1" d="M69.49,0c8.06.88,14.05,6.76,14.96,14.96,1.11,9.99-6.92,18.69-16.87,18.61-9.83-.07-17.72-8.72-16.62-18.62.91-8.2,6.91-14.06,14.97-14.96h3.56Z"/>
      <path class="cls-1" d="M0,81.37v-21.16c1.05-5.73,4.75-10.63,10.38-13,6.98,5.12,16.21,6.34,24.21,3.07l-.03,8.77c-5.96.78-11.61,2.14-17.28,4.12-4.81,1.68-8.17,5.91-8.19,11.09l-.04,10.03-5.58-.07c-1.73-.02-2.82-1.55-3.46-2.85Z"/>
      <path class="cls-1" d="M40.84,125.5c-6.6.32-12.68,1.74-18.73,3.85-1.24.43-2.61.1-3.63-.69-.83-.64-1.49-1.8-1.49-3.17v-50.96c0-1.72,1.02-3.17,2.6-3.74,13.59-4.95,32.1-7.21,44.15,1.85v62.53c-5.26-7.84-13.54-10.02-22.9-9.68ZM46.49,92.13c2.33.37,4.09-1.79,4.19-3.76.11-2.15-1.45-3.76-3.61-4.15-4.31-.78-8.56-.86-12.94-.56-2.52.17-4.28,1.96-4.04,4.44.21,2.18,2.1,3.76,4.51,3.51,3.96-.41,7.8-.13,11.89.51ZM45.71,109.1c2.46.51,4.57-.97,4.94-3.36.32-2.06-1.16-4.05-3.41-4.46-4.45-.81-8.84-.91-13.36-.56-2.36.18-4.02,2.09-3.82,4.34.19,2.11,2.04,3.76,4.33,3.58,3.77-.28,7.47-.34,11.32.46Z"/>
      <path class="cls-1" d="M113.41,129.34c-6.22-2.03-12.26-3.57-18.71-3.82-9.26-.39-17.7,1.7-23.02,9.66v-62.54c7.03-5.27,15.6-6.54,24.35-6.09,6.89.52,13.55,1.88,19.97,4.32,1.65.63,2.43,2.19,2.42,3.91v50.72c0,2.57-2.37,4.69-5.01,3.83ZM101.19,91.6c2.38.18,4.11-1.75,4.18-3.74.07-2.21-1.54-3.98-3.81-4.16-4.48-.37-8.81-.25-13.21.52-2.25.4-3.85,2.15-3.6,4.37.22,2.01,2.09,3.94,4.3,3.54,4.03-.73,7.92-.85,12.14-.53ZM101.17,108.62c2.34.14,4.01-1.6,4.18-3.59.16-1.85-1.09-3.91-3.16-4.18-4.7-.61-9.36-.38-14.01.42-2.36.41-3.83,2.58-3.39,4.66.52,2.44,2.68,3.66,5.03,3.14,3.71-.81,7.4-.7,11.35-.46Z"/>
      <path class="cls-1" d="M92.91,58.55c-9.18-.04-17.81,2.03-25.2,7.17-7.54-5.26-16.17-7.18-25.22-7.19v-6.53c.01-6.81,4.09-12.8,10.4-15.42,8.53,6.49,21.1,6.49,29.64,0,6.31,2.61,10.38,8.6,10.38,15.42v6.55Z"/>
      <circle class="cls-1" cx="25.21" cy="27.33" r="16.85"/>
      <circle class="cls-1" cx="110.2" cy="27.33" r="16.85"/>
      <path class="cls-1" d="M126.38,84.27l-.05-10.02c-.03-4.91-3.08-9.08-7.6-10.85-5.84-2.15-11.71-3.54-17.87-4.35l-.03-8.77c7.9,3.21,17.11,2.14,24.18-3.07,5.59,2.27,9.37,7.23,10.37,13.38l.03,19.71c0,2.38-1.96,4-4.21,3.99l-4.84-.02Z"/>
    </g>
  </g>
</svg>