<?xml version="1.0" encoding="UTF-8"?>
<svg id="Layer_2" data-name="Layer 2" xmlns="http://www.w3.org/2000/svg" viewBox="0 0 113.74 134.6">
  <defs>
    <style>
      .cls-1 {
        fill: #204f29;
      }
    </style>
  </defs>
  <g id="Layer_1-2" data-name="Layer 1">
    <g>
      <path class="cls-1" d="M92.87,55.73c-2.13.81-3.72,2.19-3.95,4.42l1.02,11.49,6.13,29.63h-27.88s1.61-27.91,1.61-27.91c.57-11.73.44-23.11-.89-34.89,2.79-1.88,5.71-3.21,8.99-3.98.9,2.73,2.89,4.63,5.52,5.67l5.56,2.19c4.88,1.92,7.1,6.59,8.8,11.52l-4.89,1.87Z"/>
      <path class="cls-1" d="M37.7,93.49l-5.95,32.56c-.27,1.47-.95,3.21-2.21,3.94l-7.51,4.3c-1.13.65-2.59.1-3.46-.68-.68-.61-1.69-2.35-.84-3.34,1.31-1.51,2.81-2.7,4.3-4.15l4.99-50.26,20.94-3.14,5.77,53.3,4.02,3.83c1.07,1.02.22,2.94-.62,3.7-1.01.91-2.44,1.16-3.76.41l-6.72-3.83c-1.5-.86-2.24-2.73-2.7-4.38l-6.23-32.26Z"/>
      <path class="cls-1" d="M25.7,60.57c-2.2-3.37-5.22-5.94-9-6.85.95-5.48,4.44-9.47,9.58-11.15l5.85-1.9c4.89-1.59,6.58-6.13,8-10.83,3.23,1.5,6.22,3.15,8.94,5.29-.73,6.61-1.39,12.86-1.47,19.45l-.16,13.95-19.93,3.01-1.81-10.97Z"/>
      <path class="cls-1" d="M16.26,56.53c3.18.9,5.77,3.23,7.41,6.19-2.63,4.62-4.14,11.1-9.04,11.11-1.85,0-3.67-.93-4.62-2.72l-4.72-8.9L.69,53.5c-1.31-2.48-.76-5.45,1.61-7.06,1.94-1.31,4.51-.7,5.65,1.36.98,1.77.85,3.78-.32,5.57.72,1.49,1.7,2.79,2.89,3.9,1.68,1.57,2.65,3.08,4.18,5.39l1.55-6.14Z"/>
      <path class="cls-1" d="M77.53,131.75l-7.99,2.71c-.87.29-2.26,0-2.81-.56s-1.25-2.22-.59-2.78l4.66-3.9,1.06-21.85h8.13s-2.1,23.81-2.1,23.81l-.35,2.57Z"/>
      <path class="cls-1" d="M98.74,130.94c.82.7.21,2.13-.24,2.71-.57.75-1.92,1.16-2.89.83l-7.94-2.68c-.5-.44-.45-1.87-.51-2.59l-2.11-23.85h8.13s1.04,21.74,1.04,21.74l4.52,3.83Z"/>
      <path class="cls-1" d="M49.46,29.95c-2.88-1.49-5.42-2.95-8.48-4.25l.45-16.17c-1.56-.66-2.63-1.68-3.04-2.88-.55-1.6-.25-3.19.73-4.5,1.46-1.95,3.85-2.68,6.13-1.75,1.98.8,3.33,2.82,3.15,5.29l1.07,24.26Z"/>
      <path class="cls-1" d="M77.18,30.18c-2.87.79-5.38,1.76-8.05,3.03-.12-3.31-.46-6.41-.31-9.59l.9-18.5c.09-1.96,2.43-3.12,4.16-3.14,1.36-.01,2.56.44,3.33,1.22,1.66,1.67,1.57,6.53-1.02,8l.27,10.91c.07,2.66.43,5.34.73,8.07Z"/>
      <path class="cls-1" d="M91.53,62.06c.11-1.49,1.72-2.88,3.07-3.17l4.65-.97,1.89,4.85c1.9-.16,3.66-.51,5.36-1.34.47-2.55,2.28-4.37,4.84-4.53,1.14-.07,2.29.86,2.38,2.11s-.16,2.89-.67,4.02c-3.54,2.89-6.96,5.38-10.73,7.92-2.27,1.54-5.51,1.25-6.9-1.42l-3.9-7.49Z"/>
      <circle class="cls-1" cx="28.02" cy="32.08" r="7.78"/>
      <circle class="cls-1" cx="88.66" cy="31.89" r="7.33"/>
    </g>
  </g>
</svg>