<?xml version="1.0" encoding="UTF-8"?>
<svg id="Layer_2" data-name="Layer 2" xmlns="http://www.w3.org/2000/svg" viewBox="0 0 75.35 145.11">
  <defs>
    <style>
      .cls-1 {
        fill: #fff;
      }
    </style>
  </defs>
  <g id="Layer_1-2" data-name="Layer 1">
    <path class="cls-1" d="M48.92,145.1h-26.68s.04-66.16.04-66.16H0s0-25.81,0-25.81h22.27s.02-19.94.02-19.94c.15-5.05.84-9.76,2.69-14.41C29.56,7.29,39.5,1.2,51.71.18c3.69-.31,7.41-.12,11.15-.11l3.43.26,9.05.69v23.09s-14.69.05-14.69.05c-2.14,0-4.24.46-6.17,1.12-2.53,1.13-4.14,3.04-4.93,5.67-.37,1.73-.57,3.51-.64,5.36v16.83s25.53,0,25.53,0l-3.32,25.81h-22.21s0,66.16,0,66.16Z"/>
  </g>
</svg>