<?xml version="1.0" encoding="UTF-8"?>
<svg id="Layer_2" data-name="Layer 2" xmlns="http://www.w3.org/2000/svg" viewBox="0 0 145.11 145.11">
  <defs>
    <style>
      .cls-1 {
        fill: #fff;
      }
    </style>
  </defs>
  <g id="Layer_1-2" data-name="Layer 1">
    <g>
      <path class="cls-1" d="M145.06,32.7l.05,79.8c-1.94,17.02-15.58,30.66-32.6,32.6l-79.8-.05c-17.34-2.17-30.56-15.2-32.7-32.82V32.82C2.13,15.28,15.28,2.13,32.82,0h79.41c17.63,2.14,30.65,15.35,32.82,32.7ZM133,108.66V36.3c0-13.4-10.83-24.23-24.23-24.23H36.29c-13.4,0-24.22,10.83-24.22,24.23v72.47c0,13.4,10.82,24.23,24.22,24.23h72.47c13.4,0,24.24-10.8,24.24-24.33Z"/>
      <path class="cls-1" d="M68.85,36.45c20.11-2.05,37.77,12.69,39.77,32.39,2.02,19.93-12.52,37.74-32.41,39.77s-37.59-12.39-39.74-32.18c-2.15-19.8,12.2-37.93,32.39-39.98ZM69.68,48.54c-13.56,1.61-22.8,13.91-21.13,27.06,1.67,13.15,13.68,22.49,26.82,20.93,13.24-1.57,22.73-13.59,21.15-26.86s-13.39-22.74-26.84-21.14Z"/>
      <path class="cls-1" d="M111.08,24.22c5.19-.45,9.29,3.4,9.76,8.1.51,5.06-3.23,9.38-7.99,9.89-5.05.54-9.39-3.07-9.98-7.85-.61-5.05,2.91-9.68,8.2-10.14Z"/>
    </g>
  </g>
</svg>