<?xml version="1.0" encoding="UTF-8"?>
<svg id="Layer_2" data-name="Layer 2" xmlns="http://www.w3.org/2000/svg" viewBox="0 0 144.98 145.11">
  <defs>
    <style>
      .cls-1 {
        fill: #fff;
      }
    </style>
  </defs>
  <g id="Layer_1-2" data-name="Layer 1">
    <g>
      <path class="cls-1" d="M144.98,145.11h-30.04s0-48.41,0-48.41c0-9.58-.75-21.5-11.05-23.87-3.42-.79-6.9-.68-10.32.15-4.91,1.19-8.53,4.61-10.24,9.4-1.37,3.85-2.03,7.83-2.03,12.07l-.08,50.66h-30.04s.02-96.87.02-96.87h28.84s.11,13.49.11,13.49c2.88-4.65,5.96-8.11,10.34-10.79,5.96-3.77,12.82-5.34,19.9-5.12,4.78.15,9.27.68,13.78,2.21,6.33,2.14,11.54,6.26,14.8,12.1,1.73,3.1,3.03,6.28,3.81,9.79,1.08,4.84,2.03,9.63,2.05,14.73l.13,60.45Z"/>
      <polygon class="cls-1" points="32.48 145.1 2.16 145.11 2.28 48.24 32.37 48.24 32.48 145.1"/>
      <path class="cls-1" d="M0,19.8v-4.72C1.18,7.48,6.98,1.37,14.79.19c10.75-1.61,20.25,7.04,19.94,17.76s-9.91,18.77-20.57,16.77C6.63,33.31,1.16,27.22,0,19.8Z"/>
    </g>
  </g>
</svg>